<?xml version="1.0" encoding="UTF-8" standalone="no"?>
<!-- Generator: Adobe Illustrator 19.0.0, SVG Export Plug-In . SVG Version: 6.00 Build 0)  -->

<svg
   xmlns:dc="http://purl.org/dc/elements/1.1/"
   xmlns:cc="http://creativecommons.org/ns#"
   xmlns:rdf="http://www.w3.org/1999/02/22-rdf-syntax-ns#"
   xmlns:svg="http://www.w3.org/2000/svg"
   xmlns="http://www.w3.org/2000/svg"
   xmlns:sodipodi="http://sodipodi.sourceforge.net/DTD/sodipodi-0.dtd"
   xmlns:inkscape="http://www.inkscape.org/namespaces/inkscape"
   version="1.1"
   id="Capa_1"
   x="0px"
   y="0px"
   viewBox="0 0 372.66 372.66"
   style="enable-background:new 0 0 372.66 372.66;"
   xml:space="preserve"
   sodipodi:docname="blocktv.svg"
   inkscape:version="0.92.5 (2060ec1f9f, 2020-04-08)"><metadata
   id="metadata49"><rdf:RDF><cc:Work
       rdf:about=""><dc:format>image/svg+xml</dc:format><dc:type
         rdf:resource="http://purl.org/dc/dcmitype/StillImage" /><dc:title></dc:title></cc:Work></rdf:RDF></metadata><defs
   id="defs47" /><sodipodi:namedview
   pagecolor="#ffffff"
   bordercolor="#666666"
   borderopacity="1"
   objecttolerance="10"
   gridtolerance="10"
   guidetolerance="10"
   inkscape:pageopacity="0"
   inkscape:pageshadow="2"
   inkscape:window-width="1920"
   inkscape:window-height="1136"
   id="namedview45"
   showgrid="false"
   inkscape:zoom="0.63328503"
   inkscape:cx="189.48814"
   inkscape:cy="186.33"
   inkscape:window-x="0"
   inkscape:window-y="0"
   inkscape:window-maximized="1"
   inkscape:current-layer="Capa_1" />
<path
   style="fill:#FFFFFF;"
   d="M48.73,136.9l275.2-0.24v194.8l-274.88,0.32L48.73,136.9z"
   id="path2" />
<path
   style="fill:#6AC9EA;"
   d="M8.57,104.02h355.52v260.4H8.81L8.57,104.02z M56.57,136.9c-4.418,0-8,3.582-8,8v178.88  c0,4.418,3.582,8,8,8h259.6c4.418,0,8-3.582,8-8V144.66c0-4.418-3.582-8-8-8L56.57,136.9z"
   id="path4" />
<path
   style="fill:#FFFFFF;"
   d="M8.73,104.02h22v260.64h-22V104.02z"
   id="path6" />
<g
   id="g12">
	<path
   style="fill:#203D4C;"
   d="M356.41,96.02h-152l73.6-81.6c3.545-2.637,4.281-7.648,1.645-11.194s-7.648-4.281-11.194-1.645   c-0.78,0.58-1.448,1.298-1.971,2.118l-80,88l-80-88c-2.766-3.445-7.802-3.995-11.247-1.229c-3.445,2.766-3.995,7.802-1.229,11.247   c0.198,0.246,0.41,0.481,0.635,0.702l73.6,81.6h-152c-8.837,0-16,7.163-16,16v244.64c0,8.837,7.163,16,16,16h340.16   c8.837,0,16-7.163,16-16V111.78C372.279,103.037,365.153,96.019,356.41,96.02L356.41,96.02z M356.41,356.42H17.13V111.78h169.2   h0.72h0.72h168.96L356.41,356.42z"
   id="path8" />
	<path
   style="fill:#203D4C;"
   d="M41.05,144.66v179.12c0,8.837,7.163,16,16,16h259.12c8.837,0,16-7.163,16-16V144.66   c0-8.837-7.163-16-16-16H56.81C48.067,128.791,41.049,135.916,41.05,144.66L41.05,144.66z M315.93,323.46H56.97v-178.8h259.2   L315.93,323.46z"
   id="path10" />
</g>
<g
   id="g14">
</g>
<g
   id="g16">
</g>
<g
   id="g18">
</g>
<g
   id="g20">
</g>
<g
   id="g22">
</g>
<g
   id="g24">
</g>
<g
   id="g26">
</g>
<g
   id="g28">
</g>
<g
   id="g30">
</g>
<g
   id="g32">
</g>
<g
   id="g34">
</g>
<g
   id="g36">
</g>
<g
   id="g38">
</g>
<g
   id="g40">
</g>
<g
   id="g42">
</g>
<g
   id="g988"
   transform="matrix(0.34246534,0,0,0.34246534,108.09078,155.88374)"><path
     id="path933"
     d="M 234.146,0 C 104.898,0 0,104.898 0,234.146 0,363.394 104.898,468.292 234.146,468.292 363.394,468.292 468.292,363.394 468.292,234.146 468.292,104.898 363.395,0 234.146,0 Z M 66.185,234.146 c 0,-93.034 75.551,-168.585 167.961,-168.585 34.966,0 68.059,10.615 94.907,29.346 L 95.532,329.054 C 76.8,302.205 66.185,269.112 66.185,234.146 Z m 167.961,167.961 c -34.966,0 -68.059,-10.615 -94.907,-29.346 L 372.761,139.239 c 18.732,26.849 29.346,59.941 29.346,94.907 0,93.034 -74.927,167.961 -167.961,167.961 z"
     style="fill:#d15241"
     inkscape:connector-curvature="0" /><g
     id="g935">
</g><g
     id="g937">
</g><g
     id="g939">
</g><g
     id="g941">
</g><g
     id="g943">
</g><g
     id="g945">
</g><g
     id="g947">
</g><g
     id="g949">
</g><g
     id="g951">
</g><g
     id="g953">
</g><g
     id="g955">
</g><g
     id="g957">
</g><g
     id="g959">
</g><g
     id="g961">
</g><g
     id="g963">
</g></g></svg>