<svg height="440pt" viewBox="0 0 440 440" width="440pt" xmlns="http://www.w3.org/2000/svg"><path d="m369.160156 216.984375 60.679688-45.257813v215.769532c.003906 23.265625-18.855469 42.125-42.121094 42.128906h-335.4375c-23.265625-.003906-42.125-18.863281-42.121094-42.128906v-215.769532l59.320313 44.25 125.328125 93.488282c14.945312 11.148437 35.4375 11.148437 50.382812 0zm0 0" fill="#00efd1"/><path d="m429.839844 171.726562-60.679688 45.257813v-95zm0 0" fill="#00acea"/><path d="m282.851562 49.214844h86.308594v167.769531l-123.96875 92.480469c-14.945312 11.148437-35.4375 11.148437-50.382812 0l-125.328125-93.488282.308593-.421874v-166.339844zm6.148438 139.449218v-40h-49v-49h-40v49h-49v40h49v49h40v-49zm0 0" fill="#fedb41"/><path d="m289 148.664062v40h-49v49h-40v-49h-49v-40h49v-49h40v49zm0 0" fill="#00efd1"/><path d="m246.878906 19.40625 35.972656 29.808594h-125.703124l35.972656-29.808594c15.585937-12.933594 38.171875-12.933594 53.757812 0zm0 0" fill="#00acea"/><path d="m69.789062 122.375v93.179688l-.308593.421874-59.320313-44.25 59.550782-49.351562zm0 0" fill="#00acea"/><g fill="#083863"><path d="m436.101562 163.964844-57.101562-46.714844v-68.035156c.019531-2.589844-1.023438-5.074219-2.878906-6.875-1.859375-1.804688-4.375-2.769532-6.960938-2.675782h-82.699218l-33.195313-27.730468c-19.324219-15.953125-47.257813-15.90625-66.527344.109375l-33.191406 27.621093h-83.757813c-2.582031-.09375-5.089843.875-6.9375 2.679688-1.851562 1.804688-2.882812 4.289062-2.851562 6.871094v68.394531l-56.117188 46.386719c-2.320312 1.875-3.679687 4.6875-3.710937 7.667968h-.171875v215.832032c.101562 28.8125 23.464844 52.128906 52.28125 52.167968h335.4375c28.816406-.039062 52.179688-23.355468 52.28125-52.167968v-215.832032h-.171875c-.023437-2.996093-1.394531-5.820312-3.726563-7.699218zm-22.648437 7.390625-34.453125 25.699219v-53.941407zm-213.953125-144.027344c11.917969-9.820313 29.136719-9.773437 41 .113281l14.613281 12.222656h-70.226562zm159.5 32.335937v152.308594l-119.871094 89.476563c-11.363281 8.445312-26.914062 8.445312-38.273437 0l-120.855469-90.257813v-151.527344zm-299 83.917969v52.6875l-33.460938-24.957031zm327.71875 276.082031h-335.4375c-17.773438-.027343-32.191406-14.394531-32.28125-32.167968v-195.832032l168.75 125.8125c18.542969 13.699219 43.851562 13.699219 62.398438.007813l125.800781-93.820313h2.050781v-1.660156l41-30.339844v195.832032c-.089844 17.773437-14.507812 32.140625-32.28125 32.167968zm0 0"/><path d="m151 198.664062h39v39c0 5.523438 4.476562 10 10 10h40c5.523438 0 10-4.476562 10-10v-39h39c5.523438 0 10-4.476562 10-10v-40c0-5.523437-4.476562-10-10-10h-39v-39c0-5.523437-4.476562-10-10-10h-40c-5.523438 0-10 4.476563-10 10v39h-39c-5.523438 0-10 4.476563-10 10v40c0 5.523438 4.476562 10 10 10zm10-40h39c5.523438 0 10-4.476562 10-10v-39h20v39c0 5.523438 4.476562 10 10 10h39v20h-39c-5.523438 0-10 4.476563-10 10v39h-20v-39c0-5.523437-4.476562-10-10-10h-39zm0 0"/></g></svg>