<?xml version="1.0" encoding="UTF-8" standalone="no"?>
<!-- Generator: Adobe Illustrator 19.0.0, SVG Export Plug-In . SVG Version: 6.00 Build 0)  -->

<svg
   xmlns:dc="http://purl.org/dc/elements/1.1/"
   xmlns:cc="http://creativecommons.org/ns#"
   xmlns:rdf="http://www.w3.org/1999/02/22-rdf-syntax-ns#"
   xmlns:svg="http://www.w3.org/2000/svg"
   xmlns="http://www.w3.org/2000/svg"
   xmlns:sodipodi="http://sodipodi.sourceforge.net/DTD/sodipodi-0.dtd"
   xmlns:inkscape="http://www.inkscape.org/namespaces/inkscape"
   version="1.1"
   id="Capa_1"
   x="0px"
   y="0px"
   viewBox="0 0 917.86547 309.5635"
   xml:space="preserve"
   sodipodi:docname="list.svg"
   width="917.86548"
   height="309.56351"
   inkscape:version="0.92.3 (2405546, 2018-03-11)"><metadata
   id="metadata55"><rdf:RDF><cc:Work
       rdf:about=""><dc:format>image/svg+xml</dc:format><dc:type
         rdf:resource="http://purl.org/dc/dcmitype/StillImage" /><dc:title></dc:title></cc:Work></rdf:RDF></metadata><defs
   id="defs53" /><sodipodi:namedview
   pagecolor="#ffffff"
   bordercolor="#666666"
   borderopacity="1"
   objecttolerance="10"
   gridtolerance="10"
   guidetolerance="10"
   inkscape:pageopacity="0"
   inkscape:pageshadow="2"
   inkscape:window-width="1920"
   inkscape:window-height="1025"
   id="namedview51"
   showgrid="false"
   fit-margin-top="0"
   fit-margin-left="0"
   fit-margin-right="0"
   fit-margin-bottom="0"
   inkscape:zoom="0.46094019"
   inkscape:cx="-238.64267"
   inkscape:cy="43.658339"
   inkscape:window-x="1920"
   inkscape:window-y="0"
   inkscape:window-maximized="1"
   inkscape:current-layer="Capa_1" />








<g
   id="g879"
   transform="matrix(0.66949152,0,0,0.66949152,0,-16.606737)"><path
     id="path2"
     d="m 465.924,271.695 c -5.079,-3.443 -6.251,-10.548 -2.507,-15.409 7.688,-9.982 12.018,-22.684 11.294,-36.416 -1.481,-28.084 -24.45,-50.735 -52.551,-51.853 -20.828,-0.828 -39.196,9.966 -49.174,26.415 21.581,6.56 37.712,26.162 38.945,49.542 0.724,13.733 -3.605,26.434 -11.294,36.416 -3.744,4.861 -2.572,11.966 2.507,15.409 21.768,14.757 36.076,39.686 36.076,67.965 v 57.975 h 40.071 c 12.542,0 22.709,-10.167 22.709,-22.709 v -59.37 c 0,-28.279 -14.308,-53.208 -36.076,-67.965 z"
     style="fill:#f39e54"
     inkscape:connector-curvature="0" /><path
     id="path4"
     d="m 403.144,295.799 c -5.079,-3.443 -6.251,-10.548 -2.507,-15.409 7.689,-9.982 12.018,-22.684 11.294,-36.416 -1.233,-23.38 -17.364,-42.982 -38.945,-49.542 -4.342,-1.32 -8.899,-2.124 -13.606,-2.311 -23.39,-0.931 -43.686,12.791 -52.469,32.726 23.282,5.44 41.07,25.871 42.367,50.473 0.724,13.733 -3.605,26.434 -11.294,36.416 -3.744,4.861 -2.572,11.966 2.507,15.409 21.768,14.757 36.076,39.686 36.076,67.965 v 50.732 h 39.944 c 12.542,0 22.709,-10.167 22.709,-22.709 v -1.395 -57.975 c 0,-28.279 -14.309,-53.207 -36.076,-67.964 z"
     style="fill:#eb5664"
     inkscape:connector-curvature="0" /><path
     id="path6"
     d="m 376.567,395.111 c 0,-28.28 -14.308,-53.208 -36.076,-67.965 -5.079,-3.443 -6.251,-10.548 -2.507,-15.409 7.689,-9.982 12.018,-22.684 11.294,-36.416 -1.298,-24.602 -19.085,-45.033 -42.367,-50.473 -3.295,-0.77 -6.699,-1.241 -10.183,-1.38 -31.323,-1.246 -57.108,23.778 -57.108,54.824 0,12.544 4.211,24.103 11.295,33.344 3.764,4.91 2.696,12.036 -2.424,15.507 -21.77,14.757 -36.08,39.687 -36.08,67.969 v 59.37 c 0,12.542 10.167,22.709 22.709,22.709 h 118.74 c 12.542,0 22.709,-10.167 22.709,-22.709 v -8.637 -50.734 z"
     style="fill:#f8c55a"
     inkscape:connector-curvature="0" /><path
     id="path8"
     d="m 35.942,191.462 h 109.26 c 2.938,0 5.763,1.128 7.893,3.151 l 43.764,41.561 c 5.866,5.571 15.551,1.413 15.551,-6.678 v -26.572 c 0,-6.33 5.132,-11.462 11.462,-11.462 h 14.32 c 14.328,0 25.942,-11.615 25.942,-25.942 V 52.325 c 0,-9.676 -7.844,-17.52 -17.52,-17.52 H 27.52 C 17.844,34.805 10,42.649 10,52.325 V 165.52 c 0,14.327 11.615,25.942 25.942,25.942 z M 27.52,34.805 h 219.093 c 9.676,0 17.52,7.844 17.52,17.52 l -102.695,59.237 c -15.083,8.7 -33.661,8.7 -48.744,0 L 10,52.325 c 0,-9.676 7.844,-17.52 17.52,-17.52 z"
     style="fill:#4cc1eb"
     inkscape:connector-curvature="0" /><path
     id="path10"
     d="M 161.439,111.562 264.134,52.325 c 0,-9.676 -7.844,-17.52 -17.52,-17.52 H 27.52 C 17.844,34.805 10,42.649 10,52.325 l 102.695,59.237 c 15.083,8.701 33.66,8.701 48.744,0 z"
     style="fill:#e5eaed"
     inkscape:connector-curvature="0" /><path
     id="path12"
     d="m 471.536,263.418 c -0.207,-0.14 -0.28,-0.355 -0.306,-0.512 -0.033,-0.207 0.003,-0.381 0.108,-0.518 9.433,-12.244 14.177,-27.531 13.359,-43.046 -1.744,-33.067 -29.039,-60.002 -62.14,-61.318 -17.837,-0.711 -34.737,5.697 -47.58,18.04 -2.306,2.216 -4.418,4.574 -6.345,7.048 -2.895,-0.527 -5.85,-0.864 -8.855,-0.984 -17.858,-0.713 -34.737,5.698 -47.581,18.04 -4.274,4.108 -7.894,8.695 -10.842,13.634 -1.4,-0.15 -2.807,-0.271 -4.23,-0.327 -17.831,-0.708 -34.737,5.697 -47.58,18.04 -12.85,12.348 -19.926,28.96 -19.926,46.777 0,14.393 4.619,28.027 13.358,39.428 0.193,0.252 0.2,0.515 0.172,0.691 -0.05,0.305 -0.21,0.414 -0.271,0.455 -25.341,17.177 -40.47,45.68 -40.47,76.246 v 59.37 c 0,18.036 14.673,32.709 32.709,32.709 h 118.74 c 17.578,0 31.956,-13.941 32.673,-31.347 h 29.979 c 15.058,0 27.764,-10.23 31.552,-24.104 h 31.228 c 18.036,0 32.709,-14.673 32.709,-32.709 v -59.37 C 512,309.098 496.873,280.596 471.536,263.418 Z m -104.97,148.321 v 20 4.104 18.638 c 0,0.46 -0.028,0.914 -0.076,1.362 -0.682,6.369 -6.086,11.347 -12.632,11.347 h -118.74 c -7.008,0 -12.709,-5.701 -12.709,-12.709 v -59.37 c 0,-23.925 11.848,-46.24 31.692,-59.691 4.679,-3.172 7.883,-8.207 8.791,-13.813 0.916,-5.658 -0.558,-11.51 -4.042,-16.056 -6.039,-7.878 -9.231,-17.304 -9.231,-27.26 0,-12.323 4.896,-23.814 13.783,-32.356 8.244,-7.921 18.909,-12.295 30.272,-12.494 0.268,-0.005 0.535,-0.019 0.804,-0.019 0.615,0 1.232,0.012 1.852,0.037 5.998,0.239 11.714,1.703 16.915,4.132 14.643,6.839 25.158,21.388 26.047,38.255 0.566,10.746 -2.712,21.325 -9.229,29.787 -10e-4,0 -10e-4,0 -10e-4,0 -3.452,4.482 -4.914,10.277 -4.01,15.898 0.397,2.468 1.259,4.813 2.472,6.951 1.559,2.747 3.711,5.146 6.356,6.939 4.811,3.262 9.147,7.049 12.963,11.249 11.921,13.123 18.724,30.317 18.724,48.44 z m 62.654,0 v 11.395 c 0,3.321 -1.291,6.339 -3.384,8.605 -2.324,2.516 -5.638,4.104 -9.325,4.104 h -29.944 v -4.104 -20 -16.628 c 0,-28.915 -13.545,-55.979 -36.461,-73.36 -1.306,-0.991 -2.637,-1.956 -4.003,-2.883 -0.207,-0.14 -0.279,-0.354 -0.305,-0.51 -0.033,-0.208 0.003,-0.382 0.108,-0.52 9.432,-12.244 14.176,-27.531 13.358,-43.045 -0.072,-1.368 -0.204,-2.722 -0.362,-4.068 -2.662,-22.633 -17.29,-41.895 -37.25,-51.244 1.336,-1.717 2.802,-3.354 4.403,-4.893 8.438,-8.109 19.411,-12.513 31.076,-12.513 0.432,0 0.866,0.014 1.3,0.026 0.184,0.005 0.367,0.004 0.552,0.011 6.752,0.269 13.148,2.089 18.851,5.094 13.626,7.182 23.261,21.179 24.11,37.294 0.567,10.745 -2.711,21.324 -9.23,29.788 h 10e-4 c -3.452,4.481 -4.914,10.275 -4.011,15.896 0.906,5.64 4.124,10.703 8.828,13.893 19.842,13.452 31.688,35.765 31.688,59.688 z M 492,399.03 c 0,7.008 -5.701,12.709 -12.709,12.709 H 449.22 v -47.975 c 0,-30.563 -15.127,-59.065 -40.465,-76.242 -0.206,-0.14 -0.279,-0.355 -0.305,-0.511 -0.033,-0.208 0.004,-0.382 0.108,-0.519 9.433,-12.246 14.177,-27.533 13.358,-43.045 -1.191,-22.596 -14.317,-42.321 -33.07,-52.973 8.437,-8.102 19.406,-12.502 31.065,-12.502 0.615,0 1.232,0.012 1.852,0.037 22.885,0.91 41.757,19.529 42.962,42.387 0.566,10.747 -2.712,21.325 -9.23,29.788 v 0 c -3.452,4.481 -4.914,10.275 -4.011,15.895 0.905,5.639 4.123,10.703 8.828,13.894 19.842,13.451 31.688,35.765 31.688,59.688 z"
     inkscape:connector-curvature="0" /><path
     id="path14"
     d="m 35.942,201.462 h 109.26 c 0.377,0 0.734,0.143 1.007,0.402 l 43.764,41.562 c 3.645,3.461 8.396,5.284 13.225,5.284 2.558,0 5.137,-0.512 7.583,-1.563 7.064,-3.034 11.629,-9.962 11.629,-17.65 v -26.572 c 0,-0.806 0.656,-1.462 1.462,-1.462 h 14.32 c 19.818,0 35.942,-16.124 35.942,-35.942 V 52.325 c 0,-15.175 -12.346,-27.52 -27.521,-27.52 H 27.521 C 12.346,24.805 0,37.15 0,52.325 V 165.52 c 0,19.818 16.124,35.942 35.942,35.942 z M 21.738,47.524 c 0.158,-0.191 0.327,-0.373 0.503,-0.547 0.063,-0.062 0.131,-0.119 0.197,-0.179 0.124,-0.114 0.248,-0.227 0.379,-0.332 0.081,-0.065 0.166,-0.125 0.249,-0.186 0.124,-0.091 0.248,-0.181 0.377,-0.265 0.092,-0.059 0.186,-0.115 0.28,-0.171 0.129,-0.076 0.26,-0.149 0.394,-0.217 0.099,-0.05 0.199,-0.099 0.3,-0.145 0.138,-0.063 0.278,-0.12 0.42,-0.175 0.103,-0.04 0.206,-0.079 0.311,-0.114 0.15,-0.05 0.303,-0.093 0.457,-0.133 0.102,-0.027 0.202,-0.056 0.305,-0.079 0.173,-0.038 0.35,-0.065 0.527,-0.091 0.089,-0.013 0.176,-0.031 0.266,-0.041 0.269,-0.029 0.541,-0.047 0.818,-0.047 h 219.093 c 0.277,0 0.549,0.017 0.818,0.047 0.089,0.01 0.175,0.027 0.262,0.04 0.178,0.026 0.357,0.053 0.531,0.092 0.102,0.022 0.2,0.051 0.3,0.077 0.156,0.041 0.311,0.084 0.463,0.135 0.103,0.034 0.204,0.073 0.305,0.112 0.144,0.055 0.286,0.114 0.426,0.177 0.1,0.045 0.198,0.093 0.295,0.142 0.136,0.069 0.269,0.143 0.399,0.22 0.093,0.055 0.186,0.109 0.276,0.168 0.131,0.085 0.257,0.176 0.382,0.268 0.082,0.061 0.166,0.12 0.246,0.184 0.132,0.106 0.257,0.22 0.382,0.335 0.064,0.059 0.132,0.115 0.194,0.176 0.177,0.174 0.345,0.356 0.504,0.547 0.005,0.006 0.011,0.011 0.016,0.017 l -95.971,55.358 c -11.948,6.894 -26.798,6.895 -38.75,0 L 21.722,47.539 c 0.005,-0.004 0.01,-0.009 0.016,-0.015 z m 85.96,72.7 c 9.058,5.225 19.213,7.837 29.368,7.837 10.156,0 20.312,-2.613 29.369,-7.837 l 87.698,-50.587 v 95.883 c 0,8.791 -7.151,15.942 -15.942,15.942 h -14.32 c -11.834,0 -21.462,9.628 -21.462,21.462 v 24.73 L 159.98,187.36 c -4.006,-3.804 -9.255,-5.898 -14.778,-5.898 H 35.942 C 27.151,181.462 20,174.311 20,165.52 V 69.637 Z"
     inkscape:connector-curvature="0" /><path
     id="path16"
     d="m 44.943,166.721 c 2.331,0 4.673,-0.811 6.567,-2.462 l 32.12,-28.001 c 4.163,-3.629 4.596,-9.946 0.967,-14.109 -3.629,-4.163 -9.946,-4.595 -14.109,-0.966 l -32.12,28.001 c -4.163,3.629 -4.596,9.946 -0.967,14.109 1.978,2.267 4.752,3.428 7.542,3.428 z"
     inkscape:connector-curvature="0" /><path
     id="path18"
     d="m 190.503,136.257 32.12,28.001 c 1.896,1.652 4.236,2.462 6.567,2.462 2.789,0 5.564,-1.161 7.542,-3.429 3.629,-4.163 3.196,-10.48 -0.967,-14.109 l -32.12,-28.001 c -4.164,-3.629 -10.479,-3.197 -14.109,0.966 -3.629,4.164 -3.196,10.481 0.967,14.11 z"
     inkscape:connector-curvature="0" /></g>
<g
   id="g20"
   transform="translate(-223.45632,1.2287456)">
</g>
<g
   id="g22"
   transform="translate(-223.45632,1.2287456)">
</g>
<g
   id="g24"
   transform="translate(-223.45632,1.2287456)">
</g>
<g
   id="g26"
   transform="translate(-223.45632,1.2287456)">
</g>
<g
   id="g28"
   transform="translate(-223.45632,1.2287456)">
</g>
<g
   id="g30"
   transform="translate(-223.45632,1.2287456)">
</g>
<g
   id="g32"
   transform="translate(-223.45632,1.2287456)">
</g>
<g
   id="g34"
   transform="translate(-223.45632,1.2287456)">
</g>
<g
   id="g36"
   transform="translate(-223.45632,1.2287456)">
</g>
<g
   id="g38"
   transform="translate(-223.45632,1.2287456)">
</g>
<g
   id="g40"
   transform="translate(-223.45632,1.2287456)">
</g>
<g
   id="g42"
   transform="translate(-223.45632,1.2287456)">
</g>
<g
   id="g44"
   transform="translate(-223.45632,1.2287456)">
</g>
<g
   id="g46"
   transform="translate(-223.45632,1.2287456)">
</g>
<g
   id="g48"
   transform="translate(-223.45632,1.2287456)">
</g>
<text
   xml:space="preserve"
   style="font-style:normal;font-variant:normal;font-weight:normal;font-stretch:normal;font-size:85.78455353px;line-height:1.25;font-family:'Open Sans Condensed';-inkscape-font-specification:'Open Sans Condensed, ';letter-spacing:0px;word-spacing:0px;fill:#000000;fill-opacity:1;stroke:none;stroke-width:2.14461398"
   x="374.42368"
   y="68.556458"
   id="text864"><tspan
     sodipodi:role="line"
     id="tspan862"
     x="374.42368"
     y="68.556458"
     style="stroke-width:2.14461398">John Fisher</tspan><tspan
     sodipodi:role="line"
     x="374.42368"
     y="175.78716"
     id="tspan866"
     style="stroke-width:2.14461398">Emilia Fisher</tspan><tspan
     sodipodi:role="line"
     x="374.42368"
     y="283.01785"
     id="tspan868"
     style="stroke-width:2.14461398" /></text>

</svg>