<svg id="Capa_1" enable-background="new 0 0 512 512" height="512" viewBox="0 0 512 512" width="512" xmlns="http://www.w3.org/2000/svg"><g><g><path clip-rule="evenodd" d="m16.274 504.5h370.168c3.118 0 5.641-2.551 5.641-5.669v-222.095l-41.498 80.901-237.368-302.968v-40.649h-96.943c-3.118 0-5.641 2.551-5.641 5.641v479.17c0 3.118 2.523 5.669 5.641 5.669z" fill="#e29d7b" fill-rule="evenodd"/></g><g><path clip-rule="evenodd" d="m350.584 244.505v-183.912c0-3.26-2.664-5.924-5.924-5.924-94.732 0-191.873 0-286.604 0-3.26 0-5.924 2.665-5.924 5.924v397.334c0 3.26 2.665 5.924 5.924 5.924h286.604c3.26 0 5.924-2.665 5.924-5.924z" fill="#faf5dc" fill-rule="evenodd"/></g><g><path clip-rule="evenodd" d="m184.818 171.343v-22.365c0-5.272 4.309-9.581 9.553-9.581h13.974c5.244 0 9.553 4.309 9.553 9.581v22.365h22.393c5.244 0 9.553 4.309 9.553 9.581v13.947c0 5.272-4.309 9.581-9.553 9.581h-22.393v22.365c0 5.272-4.309 9.581-9.553 9.581h-13.974c-5.244 0-9.553-4.309-9.553-9.581v-22.365h-22.393c-5.244 0-9.553-4.309-9.553-9.581v-13.947c0-5.272 4.309-9.581 9.553-9.581zm104.908 16.554c0-48.813-39.571-88.356-88.354-88.356-48.811 0-88.382 39.543-88.382 88.356s39.571 88.385 88.382 88.385c48.783 0 88.354-39.572 88.354-88.385z" fill="#f37c7c" fill-rule="evenodd"/></g><g><path clip-rule="evenodd" d="m392.083 163.604v-143.943c0-3.09-2.523-5.641-5.641-5.641h-96.943l-21.656 20.324 21.656 20.324h55.161c3.26 0 5.924 2.665 5.924 5.924v183.912l26.248-13.011z" fill="#ce8b6b" fill-rule="evenodd"/></g><g><path clip-rule="evenodd" d="m343.271 371.867-17.688-23.556h-28.204c-.51 1.134-.85 2.098-1.134 3.26-.085.454-.198.935-.283 1.474l-5.839 35.49-6.094 37.162c-.85 5.187.454 5.868 4.167 2.154l52.043-52.101c1.36-1.361 2.182-2.409 3.032-3.883z" fill="#ffe58a" fill-rule="evenodd"/></g><g><path clip-rule="evenodd" d="m289.499 54.669v-42.18c0-2.75-2.268-4.989-5.017-4.989h-166.248c-2.75 0-5.017 2.239-5.017 4.989v43.71c0 2.75 2.268 4.989 5.017 4.989h166.248c4.054 0 5.017-3.231 5.017-6.519z" fill="#ffe58a" fill-rule="evenodd"/></g><g><path clip-rule="evenodd" d="m249.844 194.871v-13.947c0-5.272-4.309-9.581-9.553-9.581h-22.393v-22.365c0-5.272-4.309-9.581-9.553-9.581h-13.974c-5.244 0-9.553 4.309-9.553 9.581v22.365h-22.393c-5.244 0-9.553 4.309-9.553 9.581v13.947c0 5.272 4.309 9.581 9.553 9.581h22.393v22.365c0 5.272 4.309 9.581 9.553 9.581h13.974c5.244 0 9.553-4.309 9.553-9.581v-22.365h22.393c5.244 0 9.553-4.309 9.553-9.581z" fill="#f9f7f8" fill-rule="evenodd"/></g><g><path clip-rule="evenodd" d="m464.194 136.193 18.142-35.376-18.142-22.167-27.807-1.418-18.141 35.405 14.258 25.909z" fill="#f9f7f8" fill-rule="evenodd"/></g><g><path clip-rule="evenodd" d="m482.336 100.817 14.711-28.687c6.491-12.643 1.446-28.29-11.168-34.781-12.642-6.463-28.289-1.446-34.752 11.197l-14.74 28.687z" fill="#7e707d" fill-rule="evenodd"/></g><g><path clip-rule="evenodd" d="m464.194 136.193-45.949-23.556c-40.308 78.548-80.587 157.125-120.866 235.673l45.892 23.556z" fill="#f37c7c" fill-rule="evenodd"/></g><g><path clip-rule="evenodd" d="m315.521 312.877 35.064-68.372v-183.912c0-3.26-2.664-5.924-5.924-5.924h-55.161v1.531c0 1.106-.368 2.126-.992 2.948-.737 1.247-1.984 2.041-4.025 2.041h-45.07c14.711 21.742 26.702 47.906 35.12 77.131 9.581 14.145 15.193 31.21 15.193 49.578 0 7.398-.907 14.598-2.608 21.458.709 9.496 1.077 19.162 1.077 28.942 0 12.699-.624 25.2-1.814 37.361-8.419 85.55-45.24 156.388-94.93 188.193h153.209c3.26 0 5.924-2.665 5.924-5.924v-100.29l-6.718 13.096c-.198.425-.397.794-.595 1.134-.85 1.474-1.672 2.523-3.033 3.883l-52.043 52.101c-3.713 3.713-5.017 3.033-4.167-2.154l6.094-37.162 5.839-35.49c.085-.539.198-1.021.283-1.474.283-1.162.624-2.126 1.134-3.26.142-.368.34-.737.539-1.134z" fill="#f5ebcd" fill-rule="evenodd"/></g><g><path clip-rule="evenodd" d="m289.726 187.897c0-18.369-5.612-35.433-15.193-49.578-15.902-23.414-42.745-38.778-73.16-38.778-6.86 0-13.549.765-19.955 2.239 35.971 8.306 63.523 38.523 67.831 75.827.397 1.049.595 2.154.595 3.317v6.973 6.973c0 1.162-.198 2.268-.595 3.317-.907 7.937-2.891 15.562-5.783 22.734-10.658 26.447-33.76 46.573-62.049 53.093 6.406 1.474 13.096 2.268 19.955 2.268 25.171 0 47.876-10.545 63.976-27.439 10.375-10.885 18-24.435 21.77-39.487 1.701-6.86 2.608-14.06 2.608-21.459z" fill="#ee6161" fill-rule="evenodd"/></g><g><path clip-rule="evenodd" d="m482.336 100.817 14.711-28.687c6.491-12.643 1.446-28.29-11.168-34.781-4.961-2.523-10.346-3.288-15.477-2.551 6.123 11.821 7.965 26.391-8.73 55.417z" fill="#6a5d6a" fill-rule="evenodd"/></g><g><path clip-rule="evenodd" d="m473.265 118.505 9.071-17.688-20.664-10.602-18.17 35.377 20.692 10.601z" fill="#f0f0f0" fill-rule="evenodd"/></g><g><path clip-rule="evenodd" d="m392.083 276.707 71.885-140.089.227-.425-20.692-10.602-6.69 13.096-38.834 75.657-41.498 80.901-20.267 39.515-8.504 16.583-4.507 8.787c-.198.397-.397.794-.595 1.134l20.664 10.602 7.313-14.258v-.028z" fill="#ee6161" fill-rule="evenodd"/></g><g><path clip-rule="evenodd" d="m288.195 427.851 52.043-52.101c1.361-1.361 2.183-2.409 3.033-3.883l-20.664-10.602s-35.376 59.556-38.579 64.432c-.85 5.187.454 5.867 4.167 2.154z" fill="#ffd772" fill-rule="evenodd"/></g><g><path clip-rule="evenodd" d="m392.083 498.831v-222.095l-41.498 80.901v100.29c0 3.26-2.664 5.924-5.924 5.924h-102.017c-15.363 16.866-32.569 30.643-51.107 40.649h194.906c3.117 0 5.64-2.551 5.64-5.669z" fill="#ce8b6b" fill-rule="evenodd"/></g><g><path clip-rule="evenodd" d="m289.499 54.669v-40.649-1.531c0-2.75-2.268-4.989-5.017-4.989h-93.598c13.124 13.55 21.118 29.736 22.081 47.169.113 2.183.113 4.365.028 6.52h26.418 45.07c1.644 0 3.118-.794 4.025-2.041.738-1.219.993-2.835.993-4.479z" fill="#ffd772" fill-rule="evenodd"/></g><g><path d="m162.425 211.952h14.894v14.865c0 9.419 7.649 17.081 17.052 17.081h13.975c9.403 0 17.052-7.662 17.052-17.081v-14.865h14.894c9.403 0 17.052-7.662 17.052-17.081v-13.947c0-9.419-7.649-17.081-17.052-17.081h-14.894v-14.865c0-9.419-7.649-17.081-17.052-17.081h-13.975c-9.403 0-17.052 7.662-17.052 17.081v14.865h-14.894c-9.403 0-17.052 7.662-17.052 17.081v13.947c0 9.419 7.649 17.081 17.052 17.081zm-2.052-31.028c0-1.128.94-2.081 2.052-2.081h22.394c4.142 0 7.5-3.357 7.5-7.5v-22.365c0-1.128.94-2.081 2.052-2.081h13.975c1.112 0 2.052.953 2.052 2.081v22.365c0 4.143 3.358 7.5 7.5 7.5h22.394c1.112 0 2.052.953 2.052 2.081v13.947c0 1.128-.94 2.081-2.052 2.081h-22.394c-4.142 0-7.5 3.357-7.5 7.5v22.365c0 1.128-.94 2.081-2.052 2.081h-13.975c-1.112 0-2.052-.953-2.052-2.081v-22.365c0-4.143-3.358-7.5-7.5-7.5h-22.394c-1.112 0-2.052-.953-2.052-2.081z"/><path d="m201.372 283.782c52.854 0 95.854-43.014 95.854-95.885 0-52.855-43-95.856-95.854-95.856-52.87 0-95.882 43.001-95.882 95.856 0 52.872 43.013 95.885 95.882 95.885zm0-176.741c44.583 0 80.854 36.272 80.854 80.856 0 44.6-36.271 80.885-80.854 80.885-44.599 0-80.882-36.285-80.882-80.885 0-44.584 36.284-80.856 80.882-80.856z"/><path d="m96.521 396.034h79.765c4.142 0 7.5-3.357 7.5-7.5s-3.358-7.5-7.5-7.5h-79.765c-4.142 0-7.5 3.357-7.5 7.5s3.358 7.5 7.5 7.5z"/><path d="m96.521 322.106h32.172c4.142 0 7.5-3.357 7.5-7.5s-3.358-7.5-7.5-7.5h-32.172c-4.142 0-7.5 3.357-7.5 7.5s3.358 7.5 7.5 7.5z"/><path d="m96.521 359.07h128.718c4.142 0 7.5-3.357 7.5-7.5s-3.358-7.5-7.5-7.5h-128.718c-4.142 0-7.5 3.357-7.5 7.5s3.358 7.5 7.5 7.5z"/><path d="m507.55 136.643c-2.221-6.919-6.99-12.548-13.425-15.851l-10.768-5.533 20.361-39.703c8.39-16.339 1.925-36.471-14.427-44.885-7.898-4.037-16.919-4.758-25.404-2.027-8.498 2.733-15.401 8.59-19.435 16.479l-44.871 87.461v-112.923c0-7.246-5.895-13.142-13.141-13.142h-90.968c-2.124-3.88-6.254-6.519-10.99-6.519h-166.248c-4.736 0-8.865 2.639-10.991 6.52h-90.969c-7.246 0-13.141 5.896-13.141 13.142v479.17c0 7.262 5.895 13.169 13.141 13.169h370.168c7.246 0 13.141-5.907 13.141-13.169v-220.278l71.216-138.824c.021-.04.049-.074.069-.114l5.646-11.009 10.76 5.529c2.871 1.473 5 3.991 5.995 7.092.99 3.084.729 6.35-.74 9.203l-57.4 111.912c-1.89 3.686-.435 8.206 3.251 10.097 1.096.562 2.265.828 3.417.828 2.724 0 5.351-1.489 6.68-4.079l57.396-111.902c3.297-6.411 3.893-13.742 1.677-20.644zm-210.55-115.123h87.583v140.273l-26.498 51.657v-152.857c0-7.402-6.022-13.424-13.425-13.424h-47.66zm87.583 475.48h-366.45v-475.48h87.583v25.649h-47.66c-7.402 0-13.424 6.021-13.424 13.424v180.823c0 4.143 3.358 7.5 7.5 7.5s7.5-3.357 7.5-7.5v-179.247h47.606c.578 1.056 1.311 2.036 2.193 2.909 2.356 2.332 5.459 3.611 8.725 3.611.042 0 .086-.001.129-.001h67.802c4.142-.028 7.478-3.408 7.45-7.55-.028-4.126-3.38-7.45-7.499-7.45-.017 0-65.32-.016-65.32-.016v-38.672h161.282v38.671s-61.321.017-61.339.017c-4.117 0-7.47 3.323-7.499 7.446-.029 4.143 3.305 7.524 7.447 7.554h63.797c3.31.002 6.494-1.248 8.882-3.61.882-.873 1.615-1.853 2.193-2.909h47.605v180.523l-33.042 64.414h-135.26c-4.142 0-7.5 3.357-7.5 7.5s3.358 7.5 7.5 7.5h127.565l-11.121 21.681c-.049.097-.091.188-.139.283h-23.387c-4.143 0-7.5 3.357-7.5 7.5s3.357 7.5 7.5 7.5h19.671l-3.608 21.964h-66.547c-4.142 0-7.5 3.357-7.5 7.5s3.358 7.5 7.5 7.5h64.083l-3.608 21.964h-181.172c-4.142 0-7.5 3.357-7.5 7.5s3.358 7.5 7.5 7.5h180.744c.7 1.478 1.853 2.833 3.716 3.788 4.65 2.386 9.212-.323 12.521-3.635l49.583-49.639v72.838h-283.454v-180.324c0-4.143-3.358-7.5-7.5-7.5s-7.5 3.357-7.5 7.5v181.9c0 7.402 6.022 13.424 13.424 13.424h286.605c7.402 0 13.425-6.021 13.425-13.424v-98.479l26.498-51.654zm-82.062-137.611 28.741 14.734-37.293 37.336zm82.909-86.108c-.006.011-.014.02-.02.032l-41.237 80.392c-.195.323-.372.658-.518 1.01l-3.617 7.052-32.601-16.713 114.059-222.321 32.593 16.709zm75.505-147.186-32.593-16.709 11.311-22.047 32.583 16.724zm-14.434-52.102 11.304-22.033c2.211-4.324 6.003-7.533 10.679-9.038 1.872-.602 3.789-.9 5.693-.9 2.854 0 5.68.671 8.271 1.996 8.986 4.624 12.543 15.699 7.928 24.689l-11.291 22.01z"/></g></g></svg>