<?xml version="1.0" encoding="UTF-8" standalone="no"?>
<svg
   xmlns:dc="http://purl.org/dc/elements/1.1/"
   xmlns:cc="http://creativecommons.org/ns#"
   xmlns:rdf="http://www.w3.org/1999/02/22-rdf-syntax-ns#"
   xmlns:svg="http://www.w3.org/2000/svg"
   xmlns="http://www.w3.org/2000/svg"
   xmlns:sodipodi="http://sodipodi.sourceforge.net/DTD/sodipodi-0.dtd"
   xmlns:inkscape="http://www.inkscape.org/namespaces/inkscape"
   height="480.00003pt"
   viewBox="-22 0 529.97611 480.00003"
   width="531.01324pt"
   version="1.1"
   id="svg26"
   sodipodi:docname="text.svg"
   inkscape:version="0.92.5 (2060ec1f9f, 2020-04-08)">
  <metadata
     id="metadata32">
    <rdf:RDF>
      <cc:Work
         rdf:about="">
        <dc:format>image/svg+xml</dc:format>
        <dc:type
           rdf:resource="http://purl.org/dc/dcmitype/StillImage" />
        <dc:title></dc:title>
      </cc:Work>
    </rdf:RDF>
  </metadata>
  <defs
     id="defs30" />
  <sodipodi:namedview
     pagecolor="#ffffff"
     bordercolor="#666666"
     borderopacity="1"
     objecttolerance="10"
     gridtolerance="10"
     guidetolerance="10"
     inkscape:pageopacity="0"
     inkscape:pageshadow="2"
     inkscape:window-width="1920"
     inkscape:window-height="1136"
     id="namedview28"
     showgrid="false"
     fit-margin-top="0"
     fit-margin-left="0"
     fit-margin-right="0"
     fit-margin-bottom="0"
     inkscape:zoom="0.9777961"
     inkscape:cx="605.73996"
     inkscape:cy="308.49907"
     inkscape:window-x="0"
     inkscape:window-y="0"
     inkscape:window-maximized="1"
     inkscape:current-layer="svg26" />
  <path
     style="fill:#acabb1"
     inkscape:connector-curvature="0"
     d="M 257.37128,160 V 24 c -0.0273,-8.824219 -7.17578,-15.9726561 -16,-16.0000001 H 1.3712849 C -7.4529351,8.0273399 -14.601375,15.175781 -14.628715,24 v 432 c 0.0273,8.82422 7.1757799,15.97266 15.9999999,16 H 241.37128 c 8.82422,-0.0273 15.97266,-7.17578 16,-16 V 320 h -24 v 88 H 9.3712849 V 40 H 233.37128 v 120 z m -136,272 c 4.41797,0 8,3.58203 8,8 0,4.41797 -3.58203,8 -8,8 -4.41797,0 -8,-3.58203 -8,-8 0,-4.41797 3.58203,-8 8,-8 z m 0,0"
     id="path981" />
  <path
     style="fill:#78b9eb"
     inkscape:connector-curvature="0"
     d="m 113.37128,160 h 120 V 40 H 9.3712849 V 408 H 233.37128 v -88 h -120 z m 0,0"
     id="path983" />
  <path
     style="fill:#00d7df"
     inkscape:connector-curvature="0"
     d="m 129.37128,440 c 0,4.41797 -3.58203,8 -8,8 -4.41797,0 -8,-3.58203 -8,-8 0,-4.41797 3.58203,-8 8,-8 4.41797,0 8,3.58203 8,8 z m 0,0"
     id="path985" />
  <path
     style="fill:#231f20"
     id="path991"
     d="m 137.37128,440 c 0,8.83594 -7.16406,16 -16,16 -8.83594,0 -16,-7.16406 -16,-16 0,-8.83594 7.16406,-16 16,-16 8.83594,0 16,7.16406 16,16 z m 0,0"
     inkscape:connector-curvature="0" />
  <path
     style="fill:#231f20"
     id="path993"
     d="m 393.09003,157.90234 c -0.21484,-0.75 -0.54297,-1.46484 -0.97656,-2.11718 -0.15235,-0.23047 -0.32032,-0.44922 -0.50391,-0.65625 -0.30859,-0.40625 -0.66016,-0.77735 -1.04687,-1.11329 -0.23047,-0.19531 -0.46875,-0.38281 -0.71875,-0.55078 -0.16797,-0.11328 -0.30469,-0.26562 -0.48829,-0.36718 -0.28515,-0.13672 -0.57421,-0.25782 -0.87109,-0.36329 -0.25781,-0.10156 -0.49609,-0.22265 -0.80078,-0.30859 -0.67969,-0.23437 -1.38281,-0.375 -2.09766,-0.42578 -0.0781,0 -0.14453,0 -0.21484,0 h -120 V 24 c 0,-13.253906 -10.74609,-24 -24,-24 H 1.3712849 C -11.882625,0 -22.628715,10.746094 -22.628715,24 v 432 c 0,13.25391 10.74609,24 23.9999999,24 H 241.37128 c 13.25391,0 24,-10.74609 24,-24 V 328 h 120 c 4.41797,0 8,-3.58203 8,-8 V 160 c 0,-0.70703 -0.0937,-1.41406 -0.28125,-2.09766 z M 225.37128,152 H 113.31659 c -0.78125,0.0156 -1.55469,0.14453 -2.29687,0.38281 l -0.51953,0.1836 c -0.1836,0.0742 -0.35157,0.16015 -0.53516,0.25 -0.1875,0.0859 -0.38672,0.1289 -0.5625,0.23046 -0.17578,0.10547 -0.32031,0.25782 -0.48828,0.36719 -0.25,0.17188 -0.48828,0.35547 -0.71875,0.55469 -0.13672,0.12109 -0.30469,0.20703 -0.4336,0.33594 l -0.0937,0.10156 c -0.1875,0.21484 -0.35937,0.44141 -0.51953,0.67187 -0.18359,0.21094 -0.35156,0.42969 -0.5039,0.65625 -0.16407,0.26172 -0.3086,0.52735 -0.44141,0.80079 -0.10547,0.22656 -0.19141,0.4414 -0.28125,0.67187 -0.0859,0.23438 -0.19141,0.40234 -0.25391,0.61719 -0.19921,0.70703 -0.30078,1.4414 -0.29687,2.17578 v 160 c 0,4.41797 3.58203,8 8,8 h 112 v 72 H 17.371285 V 48 H 225.37128 Z m -82.60938,16 h 213.22657 l -106.61719,62.71094 z m 106.60938,288 c 0,4.41797 -3.58203,8 -8,8 H 1.3712849 c -4.41797,0 -8,-3.58203 -8,-8 V 24 c 0,-4.417969 3.58203,-8 8,-8 H 241.37128 c 4.41797,0 8,3.582031 8,8 v 128 h -8 V 40 c 0,-4.417969 -3.58203,-8 -8,-8 H 9.3712849 c -4.41797,0 -8,3.582031 -8,8 v 368 c 0,4.41797 3.58203,8 8,8 H 233.37128 c 4.41797,0 8,-3.58203 8,-8 v -80 h 8 z m -128,-144 V 173.99219 l 123.9375,72.89453 c 2.50781,1.48047 5.61719,1.48047 8.125,0 l 123.9375,-72.89453 V 312 Z m 0,0"
     inkscape:connector-curvature="0" />
  <g
     id="g1034"
     transform="matrix(0.95744811,0,0,0.95744811,-86.481715,48.199698)">
    <path
       inkscape:connector-curvature="0"
       id="path20"
       d="m 372.35547,259.27734 h -154.25 c -4.14453,0 -7.5,3.35938 -7.5,7.5 0,4.14453 3.35547,7.5 7.5,7.5 h 154.25 c 4.14453,0 7.5,-3.35547 7.5,-7.5 0,-4.14062 -3.35547,-7.5 -7.5,-7.5 z m 0,0" />
    <path
       id="path10"
       d="M 533.55117,105.80078 H 233.32693 c -41.88339,0 -75.83215,21.35938 -75.83215,47.70703 v 87.79297 c 0,26.34766 33.94876,47.70703 75.83215,47.70703 h 44.27369 l -22.55593,63.53516 c -2.42136,6.81641 10.63537,11.48828 18.7128,6.69922 l 118.39226,-70.23438 h 141.40142 c 41.88338,0 75.83215,-21.35937 75.83215,-47.70703 v -87.79297 c 0,-26.34765 -33.94877,-47.70703 -75.83215,-47.70703 z m 0,0"
       inkscape:connector-curvature="0"
       style="fill:#fed066;stroke-width:1.26071727" />
    <path
       id="path12"
       d="m 269.85847,310.82031 -14.81378,41.72266 c -2.42136,6.8164 10.63537,11.48828 18.7128,6.69922 l 118.39226,-70.23438 h -66.86068 c -11.98886,0 -23.52448,2.88281 -32.24759,8.0586 z m 0,0"
       inkscape:connector-curvature="0"
       style="fill:#f5b556;stroke-width:1.26071727" />
    <path
       id="path14"
       d="m 533.55117,105.80078 h -85.5238 c 41.88338,0 75.83213,21.35938 75.83213,47.70703 v 87.79297 c 0,26.34766 -33.94875,47.70703 -75.83213,47.70703 h 85.5238 c 41.88338,0 75.83215,-21.35937 75.83215,-47.70703 v -87.79297 c 0,-26.34765 -33.94877,-47.70703 -75.83215,-47.70703 z m 0,0"
       inkscape:connector-curvature="0"
       style="fill:#f5b556;stroke-width:1.26071727" />
    <text
       id="text851"
       y="178.47139"
       x="228.3109"
       style="font-style:normal;font-variant:normal;font-weight:normal;font-stretch:normal;font-size:51.95775986px;line-height:1.25;font-family:Cousine;-inkscape-font-specification:Cousine;letter-spacing:0px;word-spacing:0px;fill:#000000;fill-opacity:1;stroke:none;stroke-width:1.298944"
       xml:space="preserve"><tspan
         style="font-style:normal;font-variant:normal;font-weight:normal;font-stretch:normal;font-family:'Open Sans Condensed';-inkscape-font-specification:'Open Sans Condensed, ';stroke-width:1.298944"
         y="178.47139"
         x="228.3109"
         id="tspan849"
         sodipodi:role="line">Message sent to</tspan><tspan
         id="tspan853"
         style="font-style:normal;font-variant:normal;font-weight:normal;font-stretch:normal;font-family:'Open Sans Condensed';-inkscape-font-specification:'Open Sans Condensed, ';stroke-width:1.298944"
         y="243.61232"
         x="228.3109"
         sodipodi:role="line">Laura</tspan></text>
    <g
       transform="matrix(1.5894079,0,0,1,-122.35897,-22.5)"
       id="g840">
      <path
         d="M 412.67578,120.80078 H 223.78516 c -30.44141,0 -55.21094,24.76563 -55.21094,55.20703 v 87.79297 c 0,30.44141 24.76953,55.20703 55.21094,55.20703 h 18.49609 l -12.15234,54.40235 c -1.40625,6.29297 1.41406,12.66406 7.01953,15.85546 2.27343,1.29297 4.76172,1.92188 7.23047,1.92188 3.61718,0 7.19531,-1.35938 9.98437,-3.98828 l 72.32422,-68.19141 h 85.98828 c 30.44141,0 55.21094,-24.76562 55.21094,-55.20703 v -87.79297 c 0,-30.4414 -24.76563,-55.20703 -55.21094,-55.20703 z m 40.21094,143 c 0,22.17188 -18.03906,40.20703 -40.21094,40.20703 h -88.96875 c -1.91016,0 -3.75391,0.73047 -5.14453,2.04297 l -73.5,69.30078 13.89844,-62.20703 c 0.49218,-2.22265 -0.0469,-4.54687 -1.46875,-6.32422 -1.42188,-1.77734 -3.57813,-2.8125 -5.85157,-2.8125 h -27.85937 c -22.16797,0 -40.20703,-18.03515 -40.20703,-40.20703 v -87.79297 c 0,-22.17187 18.03906,-40.20703 40.20703,-40.20703 h 188.89453 c 22.17188,0 40.21094,18.03516 40.21094,40.20703 z m 0,0"
         id="path22"
         inkscape:connector-curvature="0" />
    </g>
  </g>
</svg>
