<svg id="Capa_1" enable-background="new 0 0 497 497" height="512" viewBox="0 0 497 497" width="512" xmlns="http://www.w3.org/2000/svg"><g><g><path d="m56.851 471.294c-31.347 0-56.851-25.503-56.851-56.851 0-9.906 2.642-19.72 7.643-28.38l191.649-331.946c10.118-17.524 28.973-28.41 49.208-28.41s39.09 10.886 49.208 28.41l191.649 331.946c5 8.661 7.643 18.474 7.643 28.38 0 31.347-25.504 56.85-56.851 56.85h-383.298z" fill="#75cff9"/></g><g><path d="m230.912 72.372-191.65 331.947c-7.817 13.539 1.954 30.464 17.588 30.464h383.299c15.634 0 25.405-16.924 17.588-30.464l-191.649-331.947c-7.817-13.539-27.359-13.539-35.176 0l-191.65 331.947c-7.817 13.539 1.954 30.464 17.588 30.464h383.299c15.634 0 25.405-16.924 17.588-30.464l-191.649-331.947c-7.817-13.539-27.359-13.539-35.176 0z" fill="#cceffd"/></g><g><path d="m489.357 386.063-191.649-331.946c-10.118-17.524-28.973-28.41-49.208-28.41-5.484 0-10.865.806-16 2.321 13.812 4.074 25.833 13.315 33.208 26.09l191.649 331.946c5 8.661 7.643 18.475 7.643 28.381 0 31.347-25.504 56.85-56.851 56.85h32c31.347 0 56.85-25.503 56.851-56.85 0-9.908-2.643-19.721-7.643-28.382z" fill="#6cbff8"/></g><g><path d="m457.738 404.319-191.65-331.947c-7.058-12.226-23.674-13.408-32.588-3.556.958 1.059 1.83 2.242 2.588 3.556l191.649 331.946c7.817 13.539-1.954 30.464-17.588 30.464h30c15.634 0 25.406-16.924 17.589-30.463z" fill="#aae2fa"/></g><g><path d="m255.715 291.976h-16.315c-3.333 0-6.092-2.592-6.299-5.919l-6.575-105.565c-.226-3.633 2.659-6.704 6.299-6.704h29.464c3.64 0 6.526 3.071 6.299 6.704l-6.575 105.565c-.206 3.327-2.965 5.919-6.298 5.919zm-8.157 33.402c-10.271 0-18.598 8.327-18.598 18.598 0 10.272 8.327 18.598 18.598 18.598 10.272 0 18.598-8.327 18.598-18.598s-8.327-18.598-18.598-18.598z" fill="#5fa7ee"/></g></g></svg>